<?xml version="1.0" encoding="UTF-8" standalone="no"?>
<svg width="48px" height="37px" viewBox="0 0 48 37" version="1.1" xmlns="http://www.w3.org/2000/svg" xmlns:xlink="http://www.w3.org/1999/xlink">
    <defs></defs>
    <g id="Page-1" stroke="none" stroke-width="1" fill="none" fill-rule="evenodd">
        <g id="+-2-+-C-2" fill="#FFFFFF">
            <path d="M33.6,28.7 C33.6,29.2 34.05,29.6 34.55,29.6 L38.05,29.6 C38.55,29.6 39,29.2 39,28.7 L39,21.4 L46.35,21.4 C46.85,21.4 47.25,20.95 47.25,20.45 L47.25,16.95 C47.25,16.45 46.85,16 46.35,16 L39,16 L39,8.65 C39,8.15 38.55,7.75 38.05,7.75 L34.55,7.75 C34.05,7.75 33.6,8.15 33.6,8.65 L33.6,16 L26.3,16 C25.8,16 25.35,16.45 25.35,16.95 L25.35,20.45 C25.35,20.95 25.8,21.4 26.3,21.4 L33.6,21.4 L33.6,28.7 Z" id="+-2"></path>
            <path d="M0,18.55 C0,28.55 8.05,36.5 18.05,36.5 C22.5,36.5 26.8,34.95 30.2,31.65 C30.55,31.3 30.65,30.65 30.25,30.3 L27.15,27.1 C26.85,26.8 26.3,26.75 25.9,27.1 C23.8,28.8 21.25,29.95 18.25,29.95 C11.85,29.95 7.05,24.65 7.05,18.4 C7.05,12.1 11.8,6.75 18.2,6.75 C21,6.75 23.8,7.85 25.9,9.7 C26.3,10.1 26.8,10.1 27.15,9.7 L30.2,6.55 C30.6,6.15 30.6,5.55 30.15,5.15 C26.75,2.1 23.1,0.5 18.05,0.5 C8.05,0.5 0,8.55 0,18.55 L0,18.55 Z" id="C-2"></path>
        </g>
    </g>
</svg>